<svg width="1429" height="1450" viewBox="0 0 1429 1450" fill="none" xmlns="http://www.w3.org/2000/svg">
<g opacity="0.5">
<path opacity="0.0344828" d="M1245 312.722C1237.95 304.325 1227.35 299.147 1213.49 297.068C1199.61 294.987 1182.53 296.019 1162.65 299.994C1122.88 307.942 1072.1 327.614 1013.76 357.296C897.08 416.654 750.328 515.939 601.178 641.09C452.028 766.242 328.768 893.524 250.052 998.122C210.689 1050.43 182.499 1097.02 167.765 1134.8C160.398 1153.69 156.415 1170.33 156.055 1184.36C155.696 1198.37 158.954 1209.71 166 1218.11C173.045 1226.51 183.646 1231.68 197.512 1233.76C211.386 1235.85 228.467 1234.81 248.351 1230.84C288.119 1222.89 338.895 1203.22 397.241 1173.54C513.919 1114.18 660.671 1014.89 809.821 889.742C958.971 764.59 1082.23 637.308 1160.95 532.71C1200.31 480.404 1228.5 433.816 1243.23 396.032C1250.6 377.14 1254.58 360.499 1254.94 346.474C1255.3 332.457 1252.05 321.118 1245 312.722Z" stroke="#2B2C3B" stroke-width="2"/>
<path opacity="0.0689655" d="M1203.49 261.795C1195.74 254.044 1184.73 249.81 1170.74 248.947C1156.73 248.083 1139.81 250.6 1120.34 256.292C1081.42 267.677 1032.55 291.699 977.015 326.354C865.955 395.654 728.415 507.352 590.74 645.027C453.065 782.701 341.367 920.241 272.067 1031.3C237.412 1086.84 213.39 1135.71 202.006 1174.63C196.313 1194.09 193.796 1211.02 194.66 1225.02C195.523 1239.02 199.757 1250.03 207.508 1257.78C215.258 1265.53 226.27 1269.76 240.265 1270.63C254.268 1271.49 271.193 1268.97 290.655 1263.28C329.579 1251.9 378.447 1227.87 433.985 1193.22C545.045 1123.92 682.585 1012.22 820.26 874.547C957.935 736.872 1069.63 599.332 1138.93 488.272C1173.59 432.734 1197.61 383.866 1208.99 344.942C1214.69 325.48 1217.2 308.554 1216.34 294.552C1215.48 280.557 1211.24 269.545 1203.49 261.795Z" stroke="#2B2C3B" stroke-width="2"/>
<path opacity="0.103448" d="M1158.19 214.656C1149.8 207.61 1138.46 204.352 1124.44 204.712C1110.42 205.071 1093.78 209.054 1074.88 216.421C1037.1 231.155 990.512 259.345 938.206 298.708C833.608 377.424 706.326 500.684 581.174 649.834C456.023 798.984 356.737 945.736 297.38 1062.41C267.698 1120.76 248.026 1171.54 240.078 1211.3C236.103 1231.19 235.071 1248.27 237.152 1262.14C239.231 1276.01 244.409 1286.61 252.805 1293.66C261.202 1300.7 272.541 1303.96 286.558 1303.6C300.582 1303.24 317.224 1299.26 336.116 1291.89C373.9 1277.16 420.488 1248.97 472.794 1209.6C577.392 1130.89 704.674 1007.63 829.825 858.477C954.977 709.327 1054.26 562.576 1113.62 445.897C1143.3 387.551 1162.97 336.775 1170.92 297.007C1174.9 277.123 1175.93 260.042 1173.85 246.168C1171.77 232.302 1166.59 221.701 1158.19 214.656Z" stroke="#2B2C3B" stroke-width="2"/>
<path opacity="0.137931" d="M1109.45 171.622C1100.47 165.336 1088.89 163.078 1074.96 164.658C1061.02 166.239 1044.79 171.657 1026.61 180.642C990.256 198.613 946.302 230.756 897.626 274.528C800.286 362.061 684.232 495.946 572.556 655.436C460.879 814.926 374.762 969.772 325.8 1091.18C301.316 1151.89 286.144 1204.19 281.692 1244.5C279.466 1264.65 279.926 1281.76 283.208 1295.4C286.488 1309.03 292.57 1319.14 301.549 1325.43C310.528 1331.71 322.108 1333.97 336.039 1332.39C349.979 1330.81 366.21 1325.39 384.389 1316.41C420.744 1298.44 464.699 1266.29 513.375 1222.52C610.714 1134.99 726.769 1001.1 838.445 841.613C950.121 682.123 1036.24 527.277 1085.2 405.869C1109.68 345.158 1124.86 292.861 1129.31 252.551C1131.53 232.396 1131.07 215.291 1127.79 201.651C1124.51 188.019 1118.43 177.909 1109.45 171.622Z" stroke="#2B2C3B" stroke-width="2"/>
<path opacity="0.172414" d="M1057.63 132.981C1048.14 127.5 1036.41 126.261 1022.67 129.049C1008.92 131.839 993.221 138.651 975.895 149.186C941.244 170.257 900.259 206.109 855.583 253.957C766.243 349.641 662.299 493.13 564.948 661.747C467.597 830.363 395.304 992.126 357.109 1117.34C338.01 1179.95 327.454 1233.37 326.532 1273.92C326.071 1294.19 328.02 1311.19 332.478 1324.49C336.934 1337.79 343.874 1347.33 353.366 1352.81C362.859 1358.29 374.592 1359.53 388.333 1356.74C402.082 1353.95 417.779 1347.14 435.105 1336.6C469.756 1315.53 510.741 1279.68 555.417 1231.83C644.757 1136.15 748.701 992.658 846.052 824.042C943.403 655.426 1015.7 493.663 1053.89 368.45C1072.99 305.836 1083.55 252.415 1084.47 211.871C1084.93 191.599 1082.98 174.599 1078.52 161.296C1074.07 148.002 1067.13 138.461 1057.63 132.981Z" stroke="#2B2C3B" stroke-width="2"/>
<path opacity="0.206897" d="M1003.14 98.9803C993.202 94.348 981.406 94.1357 967.961 98.1108C954.507 102.088 939.463 110.243 923.121 122.248C890.439 146.259 852.734 185.546 812.398 237.106C731.737 340.212 640.695 492.215 558.41 668.674C476.126 845.134 418.206 1012.58 391.07 1140.65C377.5 1204.69 371.64 1258.83 374.255 1299.3C375.563 1319.53 378.986 1336.3 384.587 1349.16C390.185 1362.01 397.93 1370.91 407.864 1375.55C417.798 1380.18 429.594 1380.39 443.04 1376.42C456.493 1372.44 471.537 1364.28 487.879 1352.28C520.562 1328.27 558.266 1288.98 598.602 1237.42C679.263 1134.31 770.305 982.312 852.59 805.852C934.874 629.393 992.794 461.945 1019.93 333.88C1033.5 269.839 1039.36 215.702 1036.74 175.232C1035.44 154.996 1032.01 138.23 1026.41 125.368C1020.82 112.512 1013.07 103.613 1003.14 98.9803Z" stroke="#2B2C3B" stroke-width="2"/>
<path opacity="0.241379" d="M946.374 69.8356C936.074 66.0867 924.304 66.9032 911.256 72.0352C898.2 77.1701 883.925 86.6044 868.691 99.9886C838.226 126.756 804.088 169.18 768.4 224.059C697.032 333.803 619.584 493.163 552.992 676.122C486.401 859.082 443.295 1030.94 427.424 1160.88C419.487 1225.86 418.368 1280.31 424.5 1320.39C427.566 1340.44 432.438 1356.84 439.139 1369.17C445.835 1381.49 454.327 1389.68 464.627 1393.43C474.926 1397.17 486.696 1396.36 499.744 1391.23C512.8 1386.09 527.076 1376.66 542.309 1363.27C572.775 1336.5 606.912 1294.08 642.6 1239.2C713.968 1129.46 791.416 970.098 858.008 787.139C924.6 604.179 967.705 432.32 983.577 302.377C991.513 237.398 992.632 182.956 986.5 142.867C983.434 122.823 978.562 106.42 971.862 94.0937C965.165 81.7753 956.674 73.5844 946.374 69.8356Z" stroke="#2B2C3B" stroke-width="2"/>
<path opacity="0.275862" d="M887.778 45.7328C877.191 42.8959 865.537 44.7351 852.986 50.9848C840.427 57.238 827.028 67.8807 813.019 82.5416C785.002 111.863 754.692 157.101 723.923 214.881C662.392 330.428 599.127 495.931 548.735 683.998C498.342 872.065 470.379 1047.03 465.894 1177.86C463.651 1243.28 467.281 1297.62 476.884 1337.02C481.685 1356.72 487.968 1372.63 495.717 1384.33C503.462 1396.02 512.635 1403.44 523.222 1406.27C533.81 1409.11 545.463 1407.27 558.015 1401.02C570.573 1394.77 583.972 1384.13 597.981 1369.46C625.998 1340.14 656.308 1294.91 687.077 1237.12C748.609 1121.58 811.873 956.075 862.265 768.008C912.658 579.941 940.621 404.979 945.106 274.147C947.35 208.723 943.719 154.391 934.117 114.99C929.315 95.2885 923.033 79.3722 915.283 67.6773C907.538 55.9894 898.365 48.5697 887.778 45.7328Z" stroke="#2B2C3B" stroke-width="2"/>
<path opacity="0.310345" d="M827.795 26.8045C817 24.9011 805.551 27.749 793.593 35.0687C781.627 42.3928 769.206 54.1627 756.528 69.9888C731.174 101.64 704.922 149.348 679.305 209.59C628.079 330.06 579.48 500.447 545.67 692.19C511.861 883.934 499.253 1060.67 506.187 1191.39C509.655 1256.76 518.006 1310.57 531.007 1348.99C537.507 1368.19 545.153 1383.5 553.892 1394.48C562.626 1405.45 572.411 1412.04 583.205 1413.94C594 1415.84 605.449 1413 617.407 1405.68C629.373 1398.35 641.794 1386.58 654.472 1370.76C679.826 1339.1 706.078 1291.4 731.695 1231.15C782.921 1110.69 831.52 940.298 865.33 748.555C899.139 556.811 911.747 380.078 904.813 249.353C901.345 183.982 892.994 130.173 879.993 91.759C873.493 72.5513 865.847 57.2431 857.108 46.2682C848.374 35.2997 838.589 28.7078 827.795 26.8045Z" stroke="#2B2C3B" stroke-width="2"/>
<path opacity="0.344828" d="M766.881 13.1541C755.961 12.1988 744.804 16.0337 733.529 24.3679C722.247 32.707 710.899 45.5146 699.649 62.3854C677.15 96.1261 655.156 145.94 634.887 208.186C594.355 332.662 560.791 506.636 543.822 700.597C526.853 894.557 529.696 1071.72 547.997 1201.34C557.149 1266.16 570.159 1319.04 586.458 1356.17C594.607 1374.74 603.558 1389.32 613.221 1399.49C622.878 1409.66 633.2 1415.37 644.119 1416.33C655.038 1417.28 666.195 1413.45 677.471 1405.12C688.753 1396.78 700.1 1383.97 711.35 1367.1C733.85 1333.36 755.844 1283.54 776.112 1221.3C816.644 1096.82 850.208 922.847 867.178 728.887C884.147 534.926 881.303 357.766 863.002 228.143C853.85 163.324 840.841 110.447 824.542 73.3121C816.392 54.744 807.441 40.1605 797.779 29.989C788.122 19.8235 777.8 14.1094 766.881 13.1541Z" stroke="#2B2C3B" stroke-width="2"/>
<path opacity="0.37931" d="M705.5 4.84167C694.539 4.84167 683.758 9.6344 673.252 18.9196C662.74 28.2102 652.552 41.9581 642.815 59.7452C623.342 95.3185 605.773 146.86 591.007 210.635C561.478 338.17 543.204 514.408 543.204 709.109C543.204 903.811 561.478 1080.05 591.007 1207.58C605.773 1271.36 623.342 1322.9 642.815 1358.47C652.552 1376.26 662.74 1390.01 673.252 1399.3C683.758 1408.58 694.539 1413.38 705.5 1413.38C716.461 1413.38 727.241 1408.58 737.747 1399.3C748.26 1390.01 758.448 1376.26 768.185 1358.47C787.658 1322.9 805.226 1271.36 819.993 1207.58C849.522 1080.05 867.795 903.811 867.795 709.109C867.795 514.408 849.522 338.17 819.993 210.635C805.226 146.86 787.658 95.3185 768.185 59.7452C758.448 41.9581 748.26 28.2102 737.747 18.9196C727.241 9.6344 716.461 4.84167 705.5 4.84167Z" stroke="#2B2C3B" stroke-width="2"/>
<path opacity="0.413793" d="M644.119 1.8889C633.199 2.84421 622.878 8.55828 613.221 18.7238C603.558 28.8953 594.607 43.4788 586.458 62.0469C570.159 99.182 557.149 152.058 547.997 216.878C529.696 346.501 526.852 523.661 543.822 717.621C560.791 911.582 594.355 1085.56 634.887 1210.03C655.156 1272.28 677.149 1322.09 699.649 1355.83C710.899 1372.7 722.247 1385.51 733.529 1393.85C744.804 1402.18 755.961 1406.02 766.881 1405.06C777.8 1404.11 788.122 1398.39 797.778 1388.23C807.441 1378.06 816.392 1363.47 824.542 1344.91C840.84 1307.77 853.85 1254.89 863.002 1190.07C881.303 1060.45 884.147 883.292 867.177 689.331C850.208 495.371 816.644 321.396 776.112 196.921C755.844 134.675 733.85 84.8609 711.35 51.1202C700.1 34.2494 688.752 21.4417 677.47 13.1027C666.195 4.76849 655.038 0.933593 644.119 1.8889Z" stroke="#2B2C3B" stroke-width="2"/>
<path opacity="0.448276" d="M583.205 4.27711C572.41 6.18045 562.626 12.7724 553.892 23.7408C545.152 34.7158 537.506 50.024 531.006 69.2317C518.006 107.646 509.654 161.455 506.187 226.826C499.252 357.551 511.86 534.284 545.67 726.027C579.479 917.771 628.078 1088.16 679.305 1208.63C704.921 1268.87 731.173 1316.58 756.528 1348.23C769.206 1364.05 781.626 1375.82 793.592 1383.15C805.551 1390.47 817 1393.32 827.794 1391.41C838.589 1389.51 848.373 1382.92 857.107 1371.95C865.847 1360.97 873.492 1345.67 879.993 1326.46C892.993 1288.04 901.345 1234.24 904.812 1168.86C911.746 1038.14 899.139 861.406 865.329 669.663C831.52 477.919 782.921 307.532 731.694 187.063C706.078 126.82 679.826 79.1128 654.471 47.4615C641.793 31.6354 629.373 19.8655 617.407 12.5414C605.448 5.22166 593.999 2.37377 583.205 4.27711Z" stroke="#2B2C3B" stroke-width="2"/>
<path opacity="0.482759" d="M523.222 11.9468C512.634 14.7837 503.462 22.2033 495.717 33.8913C487.967 45.5861 481.685 61.5025 476.883 81.2036C467.28 120.605 463.65 174.937 465.893 240.361C470.379 371.193 498.342 546.155 548.734 734.222C599.127 922.289 662.391 1087.79 723.922 1203.34C754.692 1261.12 785.002 1306.36 813.019 1335.68C827.027 1350.34 840.426 1360.98 852.985 1367.24C865.536 1373.48 877.19 1375.32 887.777 1372.49C898.365 1369.65 907.538 1362.23 915.283 1350.54C923.032 1338.85 929.315 1322.93 934.116 1303.23C943.719 1263.83 947.349 1209.5 945.106 1144.07C940.62 1013.24 912.657 838.279 862.265 650.212C811.873 462.145 748.608 296.642 687.077 181.095C656.307 123.315 625.998 78.0766 597.981 48.7556C583.972 34.0946 570.573 23.452 558.014 17.1987C545.463 10.9491 533.809 9.10992 523.222 11.9468Z" stroke="#2B2C3B" stroke-width="2"/>
<path opacity="0.517241" d="M464.626 24.7901C454.326 28.539 445.835 36.7298 439.138 49.0483C432.437 61.3741 427.566 77.7774 424.5 97.8221C418.367 137.91 419.486 192.352 427.423 257.332C443.294 387.275 486.4 559.134 552.992 742.093C619.584 925.053 697.032 1084.41 768.399 1194.16C804.088 1249.03 838.225 1291.46 868.691 1318.23C883.924 1331.61 898.2 1341.05 911.256 1346.18C924.304 1351.31 936.073 1352.13 946.373 1348.38C956.673 1344.63 965.164 1336.44 971.861 1324.12C978.562 1311.8 983.433 1295.39 986.499 1275.35C992.632 1235.26 991.513 1180.82 983.576 1115.84C967.705 985.895 924.599 814.036 858.007 631.077C791.416 448.117 713.967 288.758 642.6 179.014C606.911 124.135 572.774 81.7108 542.308 54.9431C527.075 41.559 512.799 32.1246 499.744 26.9897C486.695 21.8578 474.926 21.0413 464.626 24.7901Z" stroke="#2B2C3B" stroke-width="2"/>
<path opacity="0.551724" d="M407.864 42.6723C397.93 47.3046 390.185 56.2043 384.587 69.0596C378.986 81.9225 375.563 98.688 374.255 118.924C371.64 159.394 377.5 213.531 391.07 277.571C418.206 405.637 476.126 573.085 558.41 749.544C640.695 926.004 731.737 1078.01 812.398 1181.11C852.733 1232.67 890.438 1271.96 923.121 1295.97C939.463 1307.98 954.507 1316.13 967.96 1320.11C981.406 1324.08 993.202 1323.87 1003.14 1319.24C1013.07 1314.61 1020.82 1305.71 1026.41 1292.85C1032.01 1279.99 1035.44 1263.22 1036.74 1242.99C1039.36 1202.52 1033.5 1148.38 1019.93 1084.34C992.794 956.274 934.874 788.826 852.589 612.366C770.305 435.907 679.263 283.904 598.602 180.798C558.266 129.238 520.561 89.9506 487.879 65.9401C471.537 53.9345 456.493 45.7803 443.039 41.8028C429.594 37.8276 417.798 38.04 407.864 42.6723Z" stroke="#2B2C3B" stroke-width="2"/>
<path opacity="0.586207" d="M353.366 65.4104C343.874 70.8908 336.934 80.4317 332.478 93.7259C328.019 107.028 326.07 124.028 326.531 144.301C327.454 184.845 338.009 238.265 357.109 300.879C395.303 426.092 467.597 587.855 564.948 756.472C662.299 925.088 766.243 1068.58 855.583 1164.26C900.258 1212.11 941.244 1247.96 975.895 1269.03C993.221 1279.57 1008.92 1286.38 1022.67 1289.17C1036.41 1291.96 1048.14 1290.72 1057.63 1285.24C1067.13 1279.76 1074.07 1270.22 1078.52 1256.92C1082.98 1243.62 1084.93 1226.62 1084.47 1206.35C1083.55 1165.8 1072.99 1112.38 1053.89 1049.77C1015.7 924.555 943.403 762.793 846.052 594.176C748.701 425.56 644.757 282.07 555.417 186.386C510.741 138.538 469.756 102.687 435.105 81.6159C417.779 71.0802 402.081 64.2682 388.332 61.4784C374.591 58.6903 362.859 59.9299 353.366 65.4104Z" stroke="#2B2C3B" stroke-width="2"/>
<path opacity="0.62069" d="M301.549 92.792C292.57 99.079 286.488 109.188 283.208 122.82C279.926 136.46 279.466 153.566 281.692 173.721C286.144 214.03 301.316 266.327 325.8 327.039C374.762 448.446 460.879 603.293 572.556 762.783C684.232 922.273 800.286 1056.16 897.626 1143.69C946.302 1187.46 990.256 1219.61 1026.61 1237.58C1044.79 1246.56 1061.02 1251.98 1074.96 1253.56C1088.89 1255.14 1100.47 1252.88 1109.45 1246.6C1118.43 1240.31 1124.51 1230.2 1127.79 1216.57C1131.07 1202.93 1131.53 1185.82 1129.31 1165.67C1124.86 1125.36 1109.68 1073.06 1085.2 1012.35C1036.24 890.942 950.121 736.095 838.445 576.605C726.769 417.115 610.714 283.231 513.375 195.698C464.699 151.926 420.744 119.782 384.389 101.812C366.211 92.8264 349.979 87.4084 336.039 85.8275C322.108 84.2476 310.528 86.5051 301.549 92.792Z" stroke="#2B2C3B" stroke-width="2"/>
<path opacity="0.655172" d="M252.806 124.561C244.409 131.607 239.231 142.208 237.152 156.074C235.071 169.948 236.103 187.028 240.078 206.913C248.026 246.681 267.698 297.457 297.38 355.803C356.738 472.481 456.023 619.233 581.174 768.383C706.326 917.533 833.608 1040.79 938.206 1119.51C990.512 1158.87 1037.1 1187.06 1074.88 1201.8C1093.78 1209.16 1110.42 1213.15 1124.44 1213.51C1138.46 1213.87 1149.8 1210.61 1158.19 1203.56C1166.59 1196.52 1171.77 1185.91 1173.85 1172.05C1175.93 1158.17 1174.9 1141.09 1170.92 1121.21C1162.97 1081.44 1143.3 1030.67 1113.62 972.32C1054.26 855.642 954.977 708.89 829.826 559.74C704.674 410.59 577.392 287.33 472.794 208.614C420.488 169.25 373.9 141.06 336.116 126.327C317.224 118.96 300.583 114.977 286.558 114.617C272.541 114.258 261.202 117.516 252.806 124.561Z" stroke="#2B2C3B" stroke-width="2"/>
<path opacity="0.689655" d="M207.508 160.439C199.757 168.189 195.523 179.201 194.66 193.196C193.796 207.199 196.313 224.124 202.005 243.586C213.39 282.51 237.412 331.378 272.067 386.916C341.367 497.976 453.065 635.516 590.74 773.191C728.414 910.866 865.954 1022.56 977.015 1091.86C1032.55 1126.52 1081.42 1150.54 1120.34 1161.93C1139.81 1167.62 1156.73 1170.14 1170.74 1169.27C1184.73 1168.41 1195.74 1164.17 1203.49 1156.42C1211.24 1148.67 1215.48 1137.66 1216.34 1123.67C1217.2 1109.66 1214.69 1092.74 1208.99 1073.28C1197.61 1034.35 1173.59 985.484 1138.93 929.946C1069.63 818.886 957.935 681.346 820.26 543.671C682.585 405.996 545.045 294.298 433.985 224.998C378.447 190.343 329.579 166.321 290.655 154.937C271.193 149.244 254.267 146.727 240.265 147.591C226.27 148.454 215.258 152.688 207.508 160.439Z" stroke="#2B2C3B" stroke-width="2"/>
<path opacity="0.724138" d="M165.999 200.106C158.954 208.502 155.696 219.842 156.055 233.858C156.415 247.883 160.398 264.524 167.765 283.417C182.498 321.2 210.689 367.789 250.052 420.094C328.768 524.693 452.028 651.974 601.178 777.126C750.328 902.278 897.08 1001.56 1013.76 1060.92C1072.1 1090.6 1122.88 1110.27 1162.65 1118.22C1182.53 1122.2 1199.61 1123.23 1213.49 1121.15C1227.35 1119.07 1237.95 1113.89 1245 1105.49C1252.05 1097.1 1255.3 1085.76 1254.94 1071.74C1254.58 1057.72 1250.6 1041.08 1243.23 1022.18C1228.5 984.401 1200.31 937.812 1160.95 885.506C1082.23 780.908 958.971 653.626 809.821 528.475C660.671 403.323 513.919 304.038 397.241 244.681C338.895 214.998 288.119 195.327 248.351 187.378C228.466 183.404 211.386 182.371 197.512 184.452C183.646 186.532 173.045 191.709 165.999 200.106Z" stroke="#2B2C3B" stroke-width="2"/>
<path opacity="0.758621" d="M128.598 243.218C122.311 252.196 120.053 263.776 121.633 277.708C123.214 291.648 128.632 307.879 137.618 326.057C155.588 362.413 187.731 406.367 231.503 455.043C319.037 552.383 452.921 668.437 612.411 780.113C771.901 891.79 926.748 977.907 1048.16 1026.87C1108.87 1051.35 1161.16 1066.52 1201.47 1070.98C1221.63 1073.2 1238.73 1072.74 1252.37 1069.46C1266.01 1066.18 1276.11 1060.1 1282.4 1051.12C1288.69 1042.14 1290.95 1030.56 1289.37 1016.63C1287.79 1002.69 1282.37 986.458 1273.38 968.28C1255.41 931.925 1223.27 887.97 1179.5 839.294C1091.96 741.955 958.079 625.9 798.589 514.224C639.098 402.548 484.252 316.431 362.844 267.469C302.133 242.984 249.836 227.813 209.527 223.361C189.371 221.134 172.266 221.594 158.626 224.877C144.994 228.157 134.885 234.239 128.598 243.218Z" stroke="#2B2C3B" stroke-width="2"/>
<path opacity="0.793103" d="M95.5864 289.405C90.1059 298.897 88.8663 310.63 91.6544 324.371C94.4442 338.12 101.256 353.817 111.792 371.143C132.863 405.794 168.714 446.779 216.562 491.455C312.246 580.795 455.736 684.739 624.352 782.09C792.969 879.441 954.731 951.735 1079.94 989.929C1142.56 1009.03 1195.98 1019.58 1236.52 1020.51C1256.8 1020.97 1273.8 1019.02 1287.1 1014.56C1300.39 1010.1 1309.93 1003.16 1315.41 993.672C1320.89 984.179 1322.13 972.447 1319.35 958.706C1316.56 944.957 1309.74 929.259 1299.21 911.933C1278.14 877.282 1242.29 836.297 1194.44 791.621C1098.75 702.281 955.264 598.337 786.648 500.986C618.031 403.635 456.268 331.342 331.055 293.147C268.441 274.048 215.021 263.492 174.477 262.57C154.204 262.109 137.204 264.058 123.902 268.516C110.608 272.972 101.067 279.912 95.5864 289.405Z" stroke="#2B2C3B" stroke-width="2"/>
<path opacity="0.827586" d="M67.2165 338.271C62.5842 348.204 62.3719 360 66.347 373.446C70.3245 386.9 78.4787 401.944 90.4843 418.285C114.495 450.968 153.782 488.673 205.342 529.009C308.448 609.669 460.451 700.712 636.911 782.996C813.37 865.281 980.818 923.201 1108.88 950.337C1172.92 963.907 1227.06 969.766 1267.53 967.151C1287.77 965.844 1304.53 962.421 1317.4 956.82C1330.25 951.222 1339.15 943.477 1343.78 933.543C1348.41 923.609 1348.63 911.813 1344.65 898.367C1340.67 884.914 1332.52 869.87 1320.51 853.528C1296.5 820.845 1257.22 783.14 1205.66 742.805C1102.55 662.144 950.548 571.102 774.089 488.817C597.629 406.533 430.181 348.613 302.116 321.477C238.075 307.907 183.938 302.047 143.468 304.662C123.232 305.97 106.467 309.393 93.6038 314.994C80.7486 320.592 71.8488 328.337 67.2165 338.271Z" stroke="#2B2C3B" stroke-width="2"/>
<path opacity="0.862069" d="M43.7056 389.403C39.9567 399.703 40.7732 411.472 45.9051 424.52C51.0401 437.576 60.4744 451.852 73.8586 467.085C100.626 497.551 143.05 531.688 197.929 567.376C307.673 638.744 467.033 716.192 649.992 782.784C832.952 849.376 1004.81 892.481 1134.75 908.353C1199.73 916.289 1254.18 917.408 1294.26 911.276C1314.31 908.21 1330.71 903.339 1343.04 896.638C1355.36 889.941 1363.55 881.45 1367.3 871.15C1371.04 860.85 1370.23 849.08 1365.1 836.032C1359.96 822.976 1350.53 808.701 1337.14 793.467C1310.37 763.002 1267.95 728.864 1213.07 693.176C1103.33 621.808 943.968 544.36 761.009 477.768C578.049 411.177 406.19 368.071 276.247 352.2C211.268 344.263 156.826 343.144 116.737 349.276C96.6929 352.342 80.2895 357.214 67.9637 363.915C55.6453 370.612 47.4544 379.103 43.7056 389.403Z" stroke="#2B2C3B" stroke-width="2"/>
<path opacity="0.896552" d="M25.2299 442.368C22.393 452.955 24.2322 464.609 30.4818 477.16C36.7351 489.719 47.3777 503.118 62.0387 517.127C91.3597 545.144 136.598 575.454 194.378 606.223C309.925 667.754 475.428 731.019 663.495 781.411C851.562 831.804 1026.52 859.767 1157.36 864.252C1222.78 866.495 1277.11 862.865 1316.51 853.262C1336.21 848.461 1352.13 842.178 1363.83 834.429C1375.51 826.684 1382.93 817.511 1385.77 806.924C1388.61 796.336 1386.77 784.683 1380.52 772.131C1374.26 759.573 1363.62 746.173 1348.96 732.165C1319.64 704.148 1274.4 673.838 1216.62 643.068C1101.08 581.537 935.572 518.273 747.505 467.88C559.438 417.488 384.476 389.525 253.644 385.039C188.22 382.796 133.888 386.426 94.4867 396.029C74.7856 400.831 58.8692 407.113 47.1744 414.863C35.4864 422.608 28.0668 431.781 25.2299 442.368Z" stroke="#2B2C3B" stroke-width="2"/>
<path opacity="0.931035" d="M11.932 496.72C10.0287 507.514 12.8766 518.963 20.1963 530.922C27.5204 542.888 39.2903 555.308 55.1164 567.986C86.7677 593.341 134.475 619.593 194.718 645.209C315.187 696.436 485.574 745.035 677.318 778.844C869.061 812.654 1045.79 825.261 1176.52 818.327C1241.89 814.86 1295.7 806.508 1334.11 793.508C1353.32 787.007 1368.63 779.361 1379.6 770.622C1390.57 761.888 1397.16 752.104 1399.07 741.309C1400.97 730.515 1398.12 719.066 1390.8 707.107C1383.48 695.141 1371.71 682.72 1355.88 670.043C1324.23 644.688 1276.52 618.436 1216.28 592.82C1095.81 541.593 925.426 492.994 733.682 459.185C541.939 425.375 365.205 412.767 234.481 419.702C169.11 423.169 115.301 431.521 76.8866 444.521C57.6789 451.021 42.3707 458.667 31.3957 467.407C20.4273 476.141 13.8354 485.925 11.932 496.72Z" stroke="#2B2C3B" stroke-width="2"/>
<path opacity="0.965517" d="M3.91303 552.004C2.95773 562.924 6.79263 574.081 15.1268 585.356C23.4659 596.638 36.2735 607.986 53.1443 619.236C86.885 641.735 136.699 663.729 198.945 683.998C323.421 724.53 497.395 758.094 691.356 775.063C885.316 792.033 1062.48 789.189 1192.1 770.888C1256.92 761.736 1309.79 748.726 1346.93 732.427C1365.5 724.278 1380.08 715.327 1390.25 705.664C1400.42 696.007 1406.13 685.686 1407.09 674.766C1408.04 663.847 1404.21 652.69 1395.87 641.415C1387.54 630.133 1374.73 618.785 1357.86 607.535C1324.12 585.035 1274.3 563.041 1212.06 542.773C1087.58 502.241 913.606 468.677 719.645 451.708C525.685 434.738 348.525 437.582 218.902 455.883C154.083 465.035 101.206 478.045 64.071 494.343C45.503 502.493 30.9194 511.444 20.7479 521.107C10.5824 530.763 4.86834 541.085 3.91303 552.004Z" stroke="#2B2C3B" stroke-width="2"/>
<path d="M1.2323 607.753C1.2323 618.714 6.02502 629.495 15.3102 640.001C24.6008 650.513 38.3488 660.701 56.1359 670.438C91.7091 689.912 143.25 707.48 207.026 722.247C334.561 751.776 510.798 770.049 705.5 770.049C900.201 770.049 1076.44 751.776 1203.97 722.247C1267.75 707.48 1319.29 689.912 1354.86 670.438C1372.65 660.701 1386.4 650.513 1395.69 640.001C1404.97 629.495 1409.77 618.714 1409.77 607.753C1409.77 596.793 1404.97 586.012 1395.69 575.506C1386.4 564.994 1372.65 554.806 1354.86 545.069C1319.29 525.595 1267.75 508.027 1203.97 493.26C1076.44 463.731 900.201 445.458 705.5 445.458C510.798 445.458 334.561 463.731 207.026 493.26C143.25 508.027 91.7091 525.595 56.1359 545.069C38.3488 554.806 24.6008 564.994 15.3102 575.506C6.02502 586.012 1.2323 596.793 1.2323 607.753Z" stroke="#2B2C3B" stroke-width="2"/>
</g>
</svg>
