<svg width="80" height="88" viewBox="0 0 80 88" fill="none" xmlns="http://www.w3.org/2000/svg">
<g filter="url(#filter0_b_18_592)">
<path d="M0 47.8954C0 25.8618 17.9664 8 40 8C62.0336 8 80 25.8618 80 47.8954C80 69.929 62.0336 87.7908 40 87.7908C17.9664 87.7908 0 69.929 0 47.8954Z" fill="url(#paint0_radial_18_592)"/>
<path d="M0.5 47.8954C0.5 26.1396 18.2408 8.5 40 8.5C61.7592 8.5 79.5 26.1396 79.5 47.8954C79.5 69.6512 61.7592 87.2908 40 87.2908C18.2408 87.2908 0.5 69.6512 0.5 47.8954Z" stroke="url(#paint1_radial_18_592)"/>
<path d="M0.5 47.8954C0.5 26.1396 18.2408 8.5 40 8.5C61.7592 8.5 79.5 26.1396 79.5 47.8954C79.5 69.6512 61.7592 87.2908 40 87.2908C18.2408 87.2908 0.5 69.6512 0.5 47.8954Z" stroke="url(#paint2_radial_18_592)"/>
<path d="M0.5 47.8954C0.5 26.1396 18.2408 8.5 40 8.5C61.7592 8.5 79.5 26.1396 79.5 47.8954C79.5 69.6512 61.7592 87.2908 40 87.2908C18.2408 87.2908 0.5 69.6512 0.5 47.8954Z" stroke="url(#paint3_radial_18_592)"/>
</g>
<g filter="url(#filter1_f_18_592)">
<ellipse cx="39.7435" cy="29.4822" rx="25.3846" ry="16.3673" fill="url(#paint4_radial_18_592)" fill-opacity="0.2"/>
</g>
<path d="M35.0221 35.5555C34.3621 35.5555 33.729 35.8178 33.2622 36.2845C32.7955 36.7513 32.5333 37.3843 32.5333 38.0444C32.5333 38.7045 32.7955 39.3376 33.2622 39.8043C33.729 40.2711 34.3621 40.5333 35.0221 40.5333H48.9251L45.7069 43.7514C45.2536 44.2209 45.0027 44.8496 45.0084 45.5021C45.0141 46.1547 45.2758 46.779 45.7373 47.2404C46.1987 47.7019 46.823 47.9636 47.4755 47.9693C48.1281 47.975 48.7568 47.7241 49.2262 47.2707L56.6929 39.8041C57.1595 39.3373 57.4216 38.7044 57.4216 38.0444C57.4216 37.3845 57.1595 36.7515 56.6929 36.2848L49.2262 28.8181C48.9966 28.5804 48.722 28.3908 48.4184 28.2604C48.1147 28.1299 47.7881 28.0613 47.4576 28.0584C47.1272 28.0555 46.7994 28.1185 46.4936 28.2436C46.1877 28.3688 45.9098 28.5536 45.6761 28.7873C45.4424 29.021 45.2576 29.2988 45.1325 29.6047C45.0073 29.9106 44.9443 30.2383 44.9472 30.5688C44.9501 30.8993 45.0187 31.2259 45.1492 31.5295C45.2796 31.8332 45.4692 32.1078 45.7069 32.3374L48.9251 35.5555H35.0221Z" fill="url(#paint5_linear_18_592)"/>
<path d="M44.9777 60.4444C45.6378 60.4444 46.2709 60.1822 46.7376 59.7154C47.2044 59.2487 47.4666 58.6156 47.4666 57.9555C47.4666 57.2954 47.2044 56.6624 46.7376 56.1956C46.2709 55.7289 45.6378 55.4666 44.9777 55.4666H31.0748L34.2929 52.2485C34.5306 52.0189 34.7202 51.7443 34.8507 51.4406C34.9811 51.137 35.0498 50.8104 35.0527 50.4799C35.0555 50.1494 34.9925 49.8217 34.8674 49.5158C34.7423 49.21 34.5575 48.9321 34.3238 48.6984C34.0901 48.4647 33.8122 48.2799 33.5063 48.1547C33.2004 48.0296 32.8727 47.9666 32.5422 47.9695C32.2118 47.9724 31.8852 48.041 31.5815 48.1715C31.2779 48.3019 31.0032 48.4915 30.7736 48.7292L23.307 56.1959C22.8404 56.6626 22.5782 57.2956 22.5782 57.9555C22.5782 58.6155 22.8404 59.2484 23.307 59.7152L30.7736 67.1818C31.243 67.6352 31.8717 67.8861 32.5243 67.8804C33.1769 67.8747 33.8011 67.613 34.2626 67.1515C34.7241 66.6901 34.9858 66.0658 34.9915 65.4132C34.9972 64.7607 34.7463 64.132 34.2929 63.6626L31.0748 60.4444H44.9777Z" fill="url(#paint6_linear_18_592)"/>
<defs>
<filter id="filter0_b_18_592" x="-5" y="3" width="90" height="89.7908" filterUnits="userSpaceOnUse" color-interpolation-filters="sRGB">
<feFlood flood-opacity="0" result="BackgroundImageFix"/>
<feGaussianBlur in="BackgroundImageFix" stdDeviation="2.5"/>
<feComposite in2="SourceAlpha" operator="in" result="effect1_backgroundBlur_18_592"/>
<feBlend mode="normal" in="SourceGraphic" in2="effect1_backgroundBlur_18_592" result="shape"/>
</filter>
<filter id="filter1_f_18_592" x="1.40435" y="0.160334" width="76.6784" height="58.6437" filterUnits="userSpaceOnUse" color-interpolation-filters="sRGB">
<feFlood flood-opacity="0" result="BackgroundImageFix"/>
<feBlend mode="normal" in="SourceGraphic" in2="BackgroundImageFix" result="shape"/>
<feGaussianBlur stdDeviation="6.47727" result="effect1_foregroundBlur_18_592"/>
</filter>
<radialGradient id="paint0_radial_18_592" cx="0" cy="0" r="1" gradientUnits="userSpaceOnUse" gradientTransform="translate(6.69204 8) rotate(47.9449) scale(119.431 86.7751)">
<stop stop-color="white" stop-opacity="0.36"/>
<stop offset="1" stop-color="white" stop-opacity="0"/>
</radialGradient>
<radialGradient id="paint1_radial_18_592" cx="0" cy="0" r="1" gradientUnits="userSpaceOnUse" gradientTransform="translate(-42.5965 16.1628) rotate(35.0407) scale(92.1512 54.3882)">
<stop stop-color="white"/>
<stop offset="1" stop-color="white" stop-opacity="0.06"/>
</radialGradient>
<radialGradient id="paint2_radial_18_592" cx="0" cy="0" r="1" gradientUnits="userSpaceOnUse" gradientTransform="translate(103.421 61.4008) rotate(161.385) scale(66.8428 45.1784)">
<stop stop-color="#8470FF"/>
<stop offset="1" stop-color="#865CFF" stop-opacity="0"/>
</radialGradient>
<radialGradient id="paint3_radial_18_592" cx="0" cy="0" r="1" gradientUnits="userSpaceOnUse" gradientTransform="translate(40.871 -10.2359) rotate(47.2149) scale(44.643 32.0879)">
<stop/>
<stop offset="1" stop-color="white" stop-opacity="0"/>
</radialGradient>
<radialGradient id="paint4_radial_18_592" cx="0" cy="0" r="1" gradientUnits="userSpaceOnUse" gradientTransform="translate(39.7435 13.1149) rotate(90) scale(24.2566 37.625)">
<stop stop-color="white"/>
<stop offset="1" stop-color="white" stop-opacity="0"/>
</radialGradient>
<linearGradient id="paint5_linear_18_592" x1="28.9299" y1="87.3768" x2="80.725" y2="52.0872" gradientUnits="userSpaceOnUse">
<stop stop-color="#982DEC"/>
<stop offset="0.572917" stop-color="#DC8DF8"/>
<stop offset="0.895833" stop-color="#A9C4F3"/>
</linearGradient>
<linearGradient id="paint6_linear_18_592" x1="28.9299" y1="87.3768" x2="80.725" y2="52.0872" gradientUnits="userSpaceOnUse">
<stop stop-color="#982DEC"/>
<stop offset="0.572917" stop-color="#DC8DF8"/>
<stop offset="0.895833" stop-color="#A9C4F3"/>
</linearGradient>
</defs>
</svg>
