<svg width="156" height="156" viewBox="0 0 156 156" fill="none" xmlns="http://www.w3.org/2000/svg">
<path d="M0.5 78C0.5 35.1979 35.1979 0.5 78 0.5C120.802 0.5 155.5 35.1979 155.5 78C155.5 120.802 120.802 155.5 78 155.5C35.1979 155.5 0.5 120.802 0.5 78Z" fill="url(#paint0_radial_18_173)"/>
<path d="M0.5 78C0.5 35.1979 35.1979 0.5 78 0.5C120.802 0.5 155.5 35.1979 155.5 78C155.5 120.802 120.802 155.5 78 155.5C35.1979 155.5 0.5 120.802 0.5 78Z" stroke="url(#paint1_radial_18_173)"/>
<path d="M0.5 78C0.5 35.1979 35.1979 0.5 78 0.5C120.802 0.5 155.5 35.1979 155.5 78C155.5 120.802 120.802 155.5 78 155.5C35.1979 155.5 0.5 120.802 0.5 78Z" stroke="url(#paint2_radial_18_173)"/>
<path d="M0.5 78C0.5 35.1979 35.1979 0.5 78 0.5C120.802 0.5 155.5 35.1979 155.5 78C155.5 120.802 120.802 155.5 78 155.5C35.1979 155.5 0.5 120.802 0.5 78Z" stroke="url(#paint3_radial_18_173)"/>
<defs>
<radialGradient id="paint0_radial_18_173" cx="0" cy="0" r="1" gradientUnits="userSpaceOnUse" gradientTransform="translate(13.0495 1.02445e-06) rotate(48.0195) scale(233.227 169.41)">
<stop stop-color="white" stop-opacity="0.36"/>
<stop offset="1" stop-color="white" stop-opacity="0"/>
</radialGradient>
<radialGradient id="paint1_radial_18_173" cx="0" cy="0" r="1" gradientUnits="userSpaceOnUse" gradientTransform="translate(-83.0633 15.9592) rotate(35.1112) scale(179.85 106.243)">
<stop stop-color="white"/>
<stop offset="1" stop-color="white" stop-opacity="0.06"/>
</radialGradient>
<radialGradient id="paint2_radial_18_173" cx="0" cy="0" r="1" gradientUnits="userSpaceOnUse" gradientTransform="translate(201.671 104.404) rotate(161.34) scale(130.378 88.3053)">
<stop stop-color="#8470FF"/>
<stop offset="1" stop-color="#865CFF" stop-opacity="0"/>
</radialGradient>
<radialGradient id="paint3_radial_18_173" cx="0" cy="0" r="1" gradientUnits="userSpaceOnUse" gradientTransform="translate(79.6984 -35.6533) rotate(47.2897) scale(87.1768 62.6469)">
<stop/>
<stop offset="1" stop-color="white" stop-opacity="0"/>
</radialGradient>
</defs>
</svg>
